
<svg width="209" height="402" viewBox="0 0 209 402" fill="none" xmlns="http://www.w3.org/2000/svg">
<path d="M91.0501 131.36H4.83008V401.48H91.0501V131.36Z" fill="#2E2E2E"/>
<path d="M184.01 259.35H91.05V314.59H208.26L184.01 259.35Z" fill="#2E1519"/>
<path d="M198.83 314.59H91.05V401.49H198.83V314.59Z" fill="#2E2E2E"/>
<path d="M41.05 212.04H52.2001V191.84C52.2001 190.36 51.6122 188.941 50.5657 187.894C49.5193 186.848 48.1 186.26 46.6201 186.26C45.1419 186.263 43.7252 186.852 42.6809 187.898C41.6366 188.944 41.05 190.362 41.05 191.84V212.04Z" fill="#F9F871"/>
<path d="M41.05 212.04C41.0302 211.82 41.0302 211.599 41.05 211.38C41.05 210.87 41.05 210.21 41.05 209.38C41.05 207.57 41 205.06 40.96 201.98C40.96 200.4 40.96 198.67 40.96 196.83C40.96 195.9 40.96 194.94 40.96 193.96C40.9243 192.933 40.9477 191.904 41.03 190.88C41.2532 189.41 42.0302 188.082 43.2016 187.167C44.373 186.252 45.8501 185.82 47.3299 185.96C48.8097 186.099 50.1801 186.799 51.16 187.917C52.14 189.034 52.6552 190.485 52.6 191.97V195.24C52.6 197.38 52.6 199.45 52.6 201.43C52.6 205.38 52.6 208.97 52.55 212.03V212.23H52.36L44.15 212.13L41.95 212.08C41.704 212.105 41.456 212.105 41.21 212.08H42.02L44.26 212.03L52.36 211.93L52.17 212.12C52.17 209.06 52.17 205.47 52.12 201.52C52.12 199.52 52.12 197.47 52.12 195.33V192.06C52.1366 190.998 51.8411 189.955 51.27 189.06C50.6901 188.154 49.849 187.444 48.8577 187.026C47.8665 186.608 46.7716 186.5 45.7177 186.716C44.6638 186.933 43.7003 187.464 42.9544 188.239C42.2086 189.015 41.7154 189.998 41.54 191.06C41.462 192.058 41.4353 193.059 41.46 194.06C41.46 195.06 41.46 195.98 41.46 196.89C41.46 198.71 41.46 200.41 41.46 201.98C41.46 205.06 41.39 207.58 41.37 209.39C41.37 210.24 41.37 210.91 41.37 211.39C41.37 211.87 41.06 212.03 41.05 212.04Z" fill="black"/>
<path d="M47.94 0L0 131.36H94.61L47.94 0Z" fill="#2E1519"/>
<path d="M87.3701 110.97C87.3701 111.12 69.4801 111.23 47.3701 111.23C25.2601 111.23 7.37012 111.12 7.37012 110.97C7.37012 110.82 25.2601 110.71 47.3701 110.71C69.4801 110.71 87.3701 110.84 87.3701 110.97Z" fill="black"/>
<path d="M90.3498 119.36C90.3498 119.51 71.2598 119.62 47.7198 119.62C24.1798 119.62 5.08984 119.51 5.08984 119.36C5.08984 119.21 24.1698 119.1 47.7198 119.1C71.2698 119.1 90.3498 119.22 90.3498 119.36Z" fill="black"/>
<path d="M83.9001 101.21C83.9001 101.36 67.5501 101.47 47.3901 101.47C27.2301 101.47 10.8701 101.36 10.8701 101.21C10.8701 101.06 27.2201 100.95 47.3901 100.95C67.5601 100.95 83.9001 101.07 83.9001 101.21Z" fill="black"/>
<path d="M80.6299 92C80.4096 92.0456 80.1847 92.0657 79.9599 92.06H78.0299L70.9199 92.15L47.4999 92.22L24.0599 92.15L16.9599 92.06H15.0299C14.805 92.0657 14.5802 92.0456 14.3599 92C14.5827 91.9786 14.807 91.9786 15.0299 92L16.9599 91.95L24.0599 91.87L47.4999 91.79L70.9199 91.87L78.0299 91.95L79.9599 92C80.1827 91.9786 80.407 91.9786 80.6299 92Z" fill="black"/>
<path d="M77.36 82.84C77.36 82.99 64.01 83.0999 47.54 83.0999C31.07 83.0999 17.72 82.99 17.72 82.84C17.72 82.69 31.07 82.58 47.54 82.58C64.01 82.58 77.36 82.65 77.36 82.84Z" fill="black"/>
<path d="M74.0801 73.58C74.0801 73.73 62.2201 73.84 47.5901 73.84C32.9601 73.84 21.0801 73.73 21.0801 73.58C21.0801 73.43 32.9501 73.3199 47.5901 73.3199C62.2301 73.3199 74.0801 73.44 74.0801 73.58Z" fill="black"/>
<path d="M70.7901 64.37C70.7901 64.51 60.4601 64.63 47.7201 64.63C34.9801 64.63 24.6401 64.51 24.6401 64.37C24.6401 64.23 34.9701 64.11 47.7201 64.11C60.4701 64.11 70.7901 64.23 70.7901 64.37Z" fill="black"/>
<path d="M67.5401 55.16C67.0243 55.2411 66.5021 55.2746 65.9801 55.26L61.7201 55.34C58.1201 55.34 53.1601 55.42 47.6701 55.42C42.1801 55.42 37.2201 55.42 33.6701 55.34L29.4101 55.26C28.8881 55.2753 28.3659 55.2418 27.8501 55.16C28.3659 55.0782 28.8881 55.0447 29.4101 55.06L33.6701 54.98C37.2601 54.98 42.2301 54.9 47.6701 54.9C53.1101 54.9 58.1201 54.9 61.7201 54.98L65.9801 55.06C66.5021 55.0454 67.0243 55.0789 67.5401 55.16Z" fill="black"/>
<path d="M64.2699 45.9499C63.8415 46.0304 63.4056 46.0639 62.9699 46.0499L59.4199 46.1299C56.4199 46.1299 52.2899 46.2099 47.7199 46.2099C43.1499 46.2099 39.0099 46.2099 36.0199 46.1299L32.4699 46.0499C32.0342 46.065 31.5982 46.0314 31.1699 45.9499C31.5982 45.8684 32.0342 45.8349 32.4699 45.8499L36.0199 45.7699C39.0199 45.7199 43.1499 45.6899 47.7199 45.6899C52.2899 45.6899 56.4199 45.6899 59.4199 45.7699L62.9699 45.8499C63.4056 45.836 63.8415 45.8695 64.2699 45.9499Z" fill="black"/>
<path d="M60.9899 36.74C60.6624 36.8173 60.3261 36.8509 59.9899 36.84C59.3199 36.84 58.3499 36.9 57.1599 36.92C54.7599 36.92 51.4599 37 47.7999 37C44.1399 37 40.7999 37 38.4499 36.92C37.2499 36.92 36.2799 36.92 35.6099 36.84C35.2736 36.8509 34.9373 36.8173 34.6099 36.74C34.9373 36.6626 35.2736 36.629 35.6099 36.64C36.2799 36.64 37.2499 36.58 38.4499 36.56C40.8399 36.56 44.1499 36.48 47.7999 36.48C51.4499 36.48 54.7999 36.48 57.1599 36.56C58.3499 36.56 59.3199 36.56 59.9899 36.64C60.3261 36.629 60.6624 36.6626 60.9899 36.74Z" fill="black"/>
<path d="M57.7201 27.53C56.6872 27.6794 55.6434 27.7396 54.6001 27.71L51.2101 27.77H47.4901V27.25H48.1201V27.84H44.4001L41.0101 27.78C39.9669 27.809 38.9231 27.7488 37.8901 27.6C38.9231 27.4504 39.9667 27.3868 41.0101 27.41H44.4001H46.4001H48.1201V27.84H47.4901V27.32H49.2101H51.2101H54.6001C55.6442 27.3028 56.6878 27.373 57.7201 27.53Z" fill="black"/>
<path d="M54.6601 19.46C52.3731 19.717 50.0701 19.8039 47.7701 19.72C45.4735 19.8041 43.1738 19.7172 40.8901 19.46C43.1738 19.2028 45.4735 19.1159 47.7701 19.2C50.0701 19.1161 52.3731 19.203 54.6601 19.46Z" fill="black"/>
<path d="M52.79 11.15C51.2609 11.4067 49.7082 11.4939 48.16 11.41C46.6118 11.4939 45.0591 11.4067 43.53 11.15C45.0591 10.8933 46.6118 10.8061 48.16 10.89C49.7082 10.8061 51.2609 10.8933 52.79 11.15Z" fill="black"/>
<path d="M91.0499 212.04C91.0499 212.19 71.9198 212.3 48.3298 212.3C24.7398 212.3 5.60986 212.19 5.60986 212.04C5.60986 211.89 24.7298 211.78 48.3298 211.78C71.9298 211.78 91.0499 211.9 91.0499 212.04Z" fill="black"/>
<path d="M91.0499 218.84C91.0499 218.99 71.9198 219.1 48.3298 219.1C24.7398 219.1 5.60986 218.99 5.60986 218.84C5.60986 218.69 24.7298 218.58 48.3298 218.58C71.9298 218.58 91.0499 218.71 91.0499 218.84Z" fill="black"/>
<path d="M68.5901 212.04C68.5748 211.951 68.5748 211.859 68.5901 211.77C68.5901 211.57 68.5901 211.3 68.5901 210.96V207.81C68.5901 205.04 68.5901 201.03 68.5201 196C68.5201 185.87 68.4601 171.59 68.4201 154.92L68.4901 155.1C63.6001 150.2 58.2801 144.89 52.7601 139.38L52.9401 139.46H40.9301L41.1101 139.38L24.8401 155.64L24.9101 155.47C24.9101 171.98 24.8401 186.11 24.8101 196.15C24.8101 201.15 24.7601 205.1 24.7401 207.85C24.7401 209.19 24.7401 210.23 24.7401 210.97C24.7401 211.31 24.7401 211.57 24.7401 211.77C24.7554 211.859 24.7554 211.951 24.7401 212.04C24.7313 211.95 24.7313 211.86 24.7401 211.77C24.7401 211.57 24.7401 211.31 24.7401 210.97C24.7401 210.23 24.7401 209.19 24.7401 207.85C24.7401 205.1 24.7401 201.14 24.6701 196.15C24.6701 186.15 24.6201 171.98 24.5801 155.47V155.36L24.6501 155.29L40.7901 139.01L40.8601 138.94H53.0101L53.0901 139.01L68.7901 154.75L68.8601 154.82V154.92C68.8601 171.59 68.7901 185.87 68.7701 196C68.7701 201 68.7701 205 68.7001 207.81V210.96C68.7001 211.3 68.7001 211.57 68.7001 211.77C68.7001 211.97 68.5901 212.04 68.5901 212.04Z" fill="black"/>
<path d="M4.09009 383.77C3.94009 383.77 3.83008 327.64 3.83008 258.41C3.83008 189.18 3.94009 133.03 4.09009 133.03C4.24009 133.03 4.35008 189.15 4.35008 258.41C4.35008 327.67 4.23009 383.77 4.09009 383.77Z" fill="black"/>
<path d="M91.5998 273.3C91.4498 273.3 91.3398 242.17 91.3398 203.79C91.3398 165.41 91.4498 134.27 91.5998 134.27C91.7498 134.27 91.8598 165.39 91.8598 203.79C91.8598 242.19 91.7898 273.3 91.5998 273.3Z" fill="black"/>
<path d="M187.91 266.52C187.91 266.66 166.31 266.78 139.66 266.78C113.01 266.78 91.4099 266.66 91.4099 266.52C91.4099 266.38 113.01 266.26 139.66 266.26C166.31 266.26 187.91 266.38 187.91 266.52Z" fill="black"/>
<path d="M189.72 272.35C189.72 272.49 167.72 272.61 140.57 272.61C113.42 272.61 91.4099 272.49 91.4099 272.35C91.4099 272.21 113.41 272.08 140.57 272.08C167.73 272.08 189.72 272.2 189.72 272.35Z" fill="black"/>
<path d="M192.65 278.36C192.65 278.51 169.98 278.62 142.03 278.62C114.08 278.62 91.4099 278.51 91.4099 278.36C91.4099 278.21 114.07 278.1 142.03 278.1C169.99 278.1 192.65 278.22 192.65 278.36Z" fill="black"/>
<path d="M195.17 284.77C195.17 284.92 171.94 285.03 143.29 285.03C114.64 285.03 91.4099 284.92 91.4099 284.77C91.4099 284.62 114.63 284.51 143.29 284.51C171.95 284.51 195.17 284.63 195.17 284.77Z" fill="black"/>
<path d="M197.99 291.18C197.99 291.32 174.13 291.44 144.7 291.44C115.27 291.44 91.4099 291.32 91.4099 291.18C91.4099 291.04 115.26 290.92 144.7 290.92C174.14 290.92 197.99 291.04 197.99 291.18Z" fill="black"/>
<path d="M200.54 297.59C200.54 297.73 176.11 297.85 145.98 297.85C115.85 297.85 91.4099 297.73 91.4099 297.59C91.4099 297.45 115.84 297.33 145.98 297.33C176.12 297.33 200.54 297.44 200.54 297.59Z" fill="black"/>
<path d="M203.37 303.99C203.37 304.14 178.3 304.25 147.37 304.25C116.44 304.25 91.3701 304.14 91.3701 303.99C91.3701 303.84 116.43 303.73 147.37 303.73C178.31 303.73 203.37 303.84 203.37 303.99Z" fill="black"/>
<path d="M201.79 310.4C201.79 310.55 177.08 310.66 146.61 310.66C116.14 310.66 91.4199 310.55 91.4199 310.4C91.4199 310.25 116.12 310.14 146.61 310.14C177.1 310.14 201.79 310.26 201.79 310.4Z" fill="black"/>
<path d="M91.0501 401.49C90.9101 401.49 90.6701 382.24 90.5201 358.49C90.3701 334.74 90.3601 315.49 90.5201 315.49C90.6801 315.49 90.9101 334.73 91.0601 358.49C91.2101 382.25 91.1901 401.49 91.0501 401.49Z" fill="black"/>
<path opacity="0.3" d="M91.05 259.35L122.32 314.59H91.41L91.05 259.35Z" fill="black"/>
<path opacity="0.3" d="M4.83008 131.36L91.0501 139.2V131.36H4.83008Z" fill="black"/>
</svg>
