
<svg width="126" height="134" viewBox="0 0 126 134" fill="none" xmlns="http://www.w3.org/2000/svg">
<path d="M78.5299 0L30.4299 47.86H125.71L78.5299 0Z" fill="#2E1519"/>
<path d="M120.91 47.87H7.27002V132.87H120.91V47.87Z" fill="#2E2E2E"/>
<path d="M91.6701 108.06H80.6001V133.14H91.6701V108.06Z" fill="black"/>
<path opacity="0.3" d="M45.85 47.87H7.27002V133.16H45.85V47.87Z" fill="black"/>
<path d="M78.53 0H48.16L0 47.86H36.61L78.53 0Z" fill="#2E1519"/>
<path d="M69.8599 86.26H65.1299V100.46H69.8599V86.26Z" fill="black"/>
<path d="M105.18 86.26H100.45V100.46H105.18V86.26Z" fill="black"/>
<path d="M69.8599 57.67H65.1299V71.87H69.8599V57.67Z" fill="black"/>
<path d="M29.8899 86.26H25.1599V100.46H29.8899V86.26Z" fill="black"/>
<path d="M29.8899 57.67H25.1599V71.87H29.8899V57.67Z" fill="#F9F871"/>
<path d="M105.18 57.67H100.45V71.87H105.18V57.67Z" fill="black"/>
<path d="M121.1 43.19C121.1 43.28 95.1801 43.35 63.2101 43.35C31.2401 43.35 5.32007 43.28 5.32007 43.19C5.32007 43.1 31.2301 43.04 63.2101 43.04C95.1901 43.04 121.1 43.11 121.1 43.19Z" fill="black"/>
<path d="M115.11 37.69C115.11 37.78 91.5401 37.85 62.4701 37.85C33.4001 37.85 9.81006 37.78 9.81006 37.69C9.81006 37.6 33.3801 37.54 62.4701 37.54C91.5601 37.54 115.11 37.61 115.11 37.69Z" fill="black"/>
<path d="M110.26 32.19C110.26 32.28 89.1701 32.35 63.1701 32.35C37.1701 32.35 16.0701 32.28 16.0701 32.19C16.0701 32.1 37.1501 32.04 63.1701 32.04C89.1901 32.04 110.26 32.11 110.26 32.19Z" fill="black"/>
<path d="M104.84 26.69C104.84 26.78 86.14 26.85 63.07 26.85C40 26.85 21.3 26.78 21.3 26.69C21.3 26.6 40 26.54 63.07 26.54C86.14 26.54 104.84 26.61 104.84 26.69Z" fill="black"/>
<path d="M99.4201 21.1899H98.6801H96.5601H88.7501L62.9901 21.2399L37.2301 21.2799H29.4301L37.2301 21.2299H62.9901H88.7501L96.5601 21.2799H98.6801L99.4201 21.1899Z" fill="black"/>
<path d="M93.2301 15.69C93.2301 15.78 79.6001 15.85 62.8001 15.85C46.0001 15.85 32.3701 15.78 32.3701 15.69C32.3701 15.6 45.9901 15.54 62.8001 15.54C79.6101 15.54 93.2301 15.61 93.2301 15.69Z" fill="black"/>
<path d="M88.9699 10.1899C88.7974 10.2134 88.6225 10.2134 88.4499 10.1899L86.9199 10.2799H81.4499L63.4499 10.3299L45.3799 10.2799H39.9199H38.4299C38.2574 10.3034 38.0825 10.3034 37.9099 10.2799C38.083 10.2671 38.2568 10.2671 38.4299 10.2799H39.9199L45.3899 10.2299H63.4499H81.4499L86.9199 10.2799H88.4099C88.5939 10.2349 88.7811 10.2048 88.9699 10.1899Z" fill="black"/>
<path d="M84.0599 4.69003C83.9243 4.71355 83.7856 4.71355 83.6499 4.69003H82.4599H78.1099L63.7499 4.74002L49.3799 4.69003H45.0299H43.8399C43.7043 4.71355 43.5656 4.71355 43.4299 4.69003C43.5663 4.67715 43.7036 4.67715 43.8399 4.69003H45.0299L49.3799 4.64001H63.7499H78.1099L82.4599 4.69003H83.6499C83.7863 4.67715 83.9236 4.67715 84.0599 4.69003Z" fill="black"/>
<path opacity="0.3" d="M78.53 0H48.16L0 47.86H36.61L78.53 0Z" fill="black"/>
<path d="M120.92 132.86C120.874 132.579 120.854 132.295 120.86 132.01C120.86 131.4 120.86 130.58 120.86 129.54C120.86 127.4 120.86 124.31 120.86 120.48C120.86 112.84 120.99 102.27 121.18 90.61C121.37 78.95 121.53 68.42 121.65 60.73C121.71 56.94 121.75 53.86 121.78 51.67C121.78 50.67 121.78 49.82 121.84 49.21C121.829 48.9224 121.846 48.6344 121.89 48.35C121.918 48.636 121.918 48.924 121.89 49.21C121.89 49.82 121.89 50.64 121.94 51.67C121.94 53.81 121.94 56.9 121.94 60.73C121.94 68.38 121.81 78.94 121.62 90.61C121.43 102.28 121.27 112.8 121.14 120.49C121.14 124.27 121.04 127.35 121.01 129.54C121.01 130.54 121.01 131.4 121.01 132.01C120.995 132.295 120.965 132.578 120.92 132.86Z" fill="black"/>
<path d="M7.27007 133.16C7.13007 133.16 6.95007 114.16 6.87007 90.67C6.79007 67.18 6.87007 48.1799 6.98007 48.1799C7.09007 48.1799 7.30007 67.18 7.39007 90.67C7.48007 114.16 7.42007 133.16 7.27007 133.16Z" fill="black"/>
<path d="M45.7099 133.46C45.5699 133.46 45.45 114.41 45.45 90.91C45.45 67.41 45.5699 48.36 45.7099 48.36C45.8499 48.36 45.97 67.41 45.97 90.91C45.97 114.41 45.8599 133.46 45.7099 133.46Z" fill="black"/>
</svg>
