<svg xmlns="http://www.w3.org/2000/svg" xmlns:xlink="http://www.w3.org/1999/xlink" version="1.1" id="Layer_1" x="0px" y="0px" viewBox="0 0 104.3 125.8" style="enable-background:new 0 0 104.3 125.8;" xml:space="preserve" width="104.3"  height="125.8" >
<style type="text/css">
	.st0{fill:#FFFFFF;}
</style>
<g>
	
	<path class="st0" d="M79.7,21H21.2c-9.4,0-17,7.6-17,17c0,0,0,0,0,0v25.5c0,4.1,1.5,8,4.1,11.1c-4.8,5.2-5.5,13-1.7,19   C2.5,96.8,0,101.7,0,107v1.8c0,9.4,7.6,17,17,17h46.5c9.4,0,17-7.6,17-17V107c0-9.4-7.6-17-17-17H20.2v0c-2.7,0-4.8-2.2-4.7-4.9   c0-2.6,2.2-4.7,4.8-4.7h0.2c0.3,0,38.9,0,38.9,0c9.4,0,17-7.6,17-17c0,0,0,0,0,0l0.1-29c0-1.3,1-2.3,2.3-2.3h1.1   c1.5,0,2.8-1.3,2.8-2.8v-5.6C82.5,22.2,81.2,21,79.7,21z M69.3,107v1.8c0,3.2-2.6,5.8-5.8,5.8H17c-3.2,0-5.8-2.6-5.8-5.8V107   c0-3.2,2.6-5.8,5.8-5.8h46.5C66.7,101.2,69.3,103.8,69.3,107z M65,63.5c0,3.2-2.6,5.8-5.8,5.8h-38c-3.2,0-5.8-2.6-5.8-5.8V37.9   c0-3.2,2.6-5.8,5.8-5.8h38c3.2,0,5.8,2.6,5.8,5.8L65,63.5z"/>
</g>
</svg>