
<svg width="185" height="179" viewBox="0 0 185 179" fill="none" xmlns="http://www.w3.org/2000/svg">
<path d="M4.02002 177.85V92.56L95.33 10.6H114.4L181.69 91.67V177.85H4.02002Z" fill="#2E2E2E"/>
<path d="M0 92.73H54.04L114.4 10.6H61.56L0 92.73Z" fill="#2E1519"/>
<path d="M97.33 21.54V0H71.01V36.96H86.02L97.33 21.54Z" fill="#2E1519"/>
<path opacity="0.3" d="M52.34 92.73L52.66 177.85H4.02002V92.73H52.34Z" fill="black"/>
<path d="M124.38 154.11H114.4V177.85H124.38V154.11Z" fill="black"/>
<path d="M80.24 126.55H75.25V141.13H80.24V126.55Z" fill="black"/>
<path d="M80.24 89.8201H75.25V104.4H80.24V89.8201Z" fill="black"/>
<path d="M121.03 126.55H116.04V141.13H121.03V126.55Z" fill="black"/>
<path d="M121.03 88.45H116.04V103.03H121.03V88.45Z" fill="black"/>
<path d="M121.03 48.77H116.04V63.35H121.03V48.77Z" fill="#F9F871"/>
<path d="M161.82 126.55H156.83V141.13H161.82V126.55Z" fill="#F9F871"/>
<path d="M161.82 88.45H156.83V103.03H161.82V88.45Z" fill="black"/>
<path opacity="0.3" d="M86.03 0H71.01V36.97H86.03V0Z" fill="black"/>
<path d="M4.03003 177.77C3.88003 177.77 3.77002 159.06 3.77002 136C3.77002 112.94 3.88003 94.23 4.03003 94.23C4.18003 94.23 4.29004 112.92 4.29004 136C4.29004 159.08 4.16003 177.77 4.03003 177.77Z" fill="black"/>
<path d="M52.23 177.53C52.09 177.53 51.97 158.53 51.97 135.13C51.97 111.73 52.09 92.73 52.23 92.73C52.37 92.73 52.49 111.73 52.49 135.13C52.49 158.53 52.37 177.53 52.23 177.53Z" fill="black"/>
<path d="M181.69 178.06C181.55 178.06 181.54 158.83 181.69 135.06C181.84 111.29 182.05 92.0601 182.19 92.0601C182.33 92.0601 182.34 111.29 182.19 135.06C182.04 158.83 181.84 178.06 181.69 178.06Z" fill="black"/>
<path d="M97.3299 0.47998C97.3425 0.613016 97.3425 0.746939 97.3299 0.879974C97.3299 1.20664 97.3299 1.59662 97.3299 2.04996C97.3299 3.15996 97.3299 4.60995 97.3799 6.35995C97.3799 10.09 97.3799 15.06 97.3799 20.57V21.57L89.3299 32.48L86.8799 35.74L86.2 36.61C86.05 36.81 85.96 36.91 85.95 36.9C86.0063 36.7849 86.0768 36.6774 86.1599 36.58C86.3299 36.32 86.5399 36.02 86.7899 35.67L89.1499 32.35C91.2399 29.49 94.0199 25.66 97.1499 21.35V21.44V20.44C97.1499 14.93 97.15 9.95998 97.2 6.22998C97.2 4.47998 97.1999 3.02995 97.2499 1.91995C97.2499 1.47329 97.2499 1.0833 97.2499 0.749969C97.2706 0.658296 97.2973 0.568108 97.3299 0.47998Z" fill="black"/>
<path d="M114.4 10.6L181.69 91.67L184.96 90.43L117.9 10.6H114.4Z" fill="#2E1519"/>
<path d="M114.4 10.6C114.345 10.7218 114.274 10.836 114.19 10.94C114.02 11.18 113.79 11.5 113.51 11.94L110.86 15.63L101.03 29.12L68.43 73.59C63.43 80.36 58.64 86.88 54.24 92.88L54.16 92.98H54.03L15.22 92.88L4.03 92.81H1.03H0.26001H0C0.0860233 92.795 0.173986 92.795 0.26001 92.81H1.03H4.03L15.24 92.73L54.05 92.64L53.85 92.74L68.03 73.28L100.75 28.9L110.75 15.48L113.48 11.85L114.2 10.91L114.4 10.6Z" fill="black"/>
</svg>
