<svg xmlns:xlink="http://www.w3.org/1999/xlink" xmlns="http://www.w3.org/2000/svg" width="42" height="32" viewBox="0 0 42 32" fill="none">
<path d="M15.9951 2.15317C15.9951 0.964009 16.9591 0 18.1483 0C19.3375 0 20.3015 0.964009 20.3015 2.15317C20.3015 3.34234 19.3375 4.30635 18.1483 4.30635C16.9591 4.30635 15.9951 3.34234 15.9951 2.15317Z" fill="#00D2DA"/>
<path d="M15.9941 8.91977C15.9941 7.73061 16.9581 6.7666 18.1473 6.7666C19.3365 6.7666 20.3005 7.73061 20.3005 8.91977V29.8363C20.3005 31.0255 19.3365 31.9895 18.1473 31.9895C16.9581 31.9895 15.9941 31.0255 15.9941 29.8363V8.91977Z" fill="#746FFF"/>
<path d="M23.9922 16.3016C23.9922 15.1124 24.9562 14.1484 26.1454 14.1484C27.3345 14.1484 28.2985 15.1124 28.2985 16.3016V23.0687C28.2985 24.2579 27.3345 25.2219 26.1454 25.2219C24.9562 25.2219 23.9922 24.2579 23.9922 23.0687V16.3016Z" fill="#746FFF"/>
<path d="M7.99707 8.91978C7.99707 7.73061 8.96108 6.7666 10.1502 6.7666C11.3394 6.7666 12.3034 7.73061 12.3034 8.91977V15.6869C12.3034 16.8761 11.3394 17.8401 10.1502 17.8401C8.96108 17.8401 7.99707 16.8761 7.99707 15.6869V8.91978Z" fill="#746FFF"/>
<path d="M0 15.6864C0 14.4972 0.964009 13.5332 2.15317 13.5332C3.34234 13.5332 4.30635 14.4972 4.30635 15.6864C4.30635 16.8755 3.34234 17.8395 2.15317 17.8395C0.964009 17.8395 0 16.8755 0 15.6864Z" fill="#746FFF"/>
<path d="M31.9902 16.3016C31.9902 15.1124 32.9542 14.1484 34.1434 14.1484C35.3326 14.1484 36.2966 15.1124 36.2966 16.3016C36.2966 17.4908 35.3326 18.4548 34.1434 18.4548C32.9542 18.4548 31.9902 17.4908 31.9902 16.3016Z" fill="#746FFF"/>
</svg>