<svg xmlns:xlink="http://www.w3.org/1999/xlink" xmlns="http://www.w3.org/2000/svg" width="258" height="64" viewBox="0 0 258 64" fill="none">
<g clip-path="url(#clip0_1610_17470)">
<path d="M0 31.9999C0 44.497 5.37388 55.8104 14.0617 64H81.9517C90.6404 55.8104 96.0144 44.497 96.0144 31.9999C96.0144 19.5025 90.6404 8.18912 81.9517 0H14.0617C5.37388 8.18912 0 19.5025 0 31.9999Z" fill="#FAB900"/>
<path d="M40.2537 31.9999C40.2537 44.497 45.6272 55.8109 54.3154 64H122.206C130.894 55.8109 136.268 44.497 136.268 31.9999C136.268 19.503 130.894 8.18912 122.206 0H54.3154C45.6272 8.18912 40.2537 19.503 40.2537 31.9999Z" fill="#F49300"/>
<path d="M80.9905 31.9999C80.9905 44.497 86.3644 55.8109 95.0521 64H162.943C171.631 55.8109 177.005 44.497 177.005 31.9999C177.005 19.503 171.631 8.18912 162.943 0H95.0521C86.3644 8.18912 80.9905 19.503 80.9905 31.9999Z" fill="#E55900"/>
<path d="M121.727 31.9999C121.727 44.497 127.101 55.8109 135.789 64H203.679C212.367 55.8109 217.741 44.497 217.741 31.9999C217.741 19.503 212.367 8.18912 203.679 0H135.789C127.101 8.18912 121.727 19.503 121.727 31.9999Z" fill="#D73408"/>
<path d="M162.464 31.9999C162.464 44.497 167.838 55.8104 176.526 64H243.938C252.625 55.8104 258 44.497 258 31.9999C258 19.503 252.625 8.18912 243.938 0H176.526C167.838 8.18912 162.464 19.503 162.464 31.9999Z" fill="#C01F10"/>
<path d="M36.5925 28.757L34.7943 28.5214C30.8987 28.0041 29.5001 26.827 29.5001 24.9911C29.5001 22.9668 31.0492 21.5072 34.045 21.5072C36.8417 21.5072 39.339 22.3553 41.9356 23.9551C42.1857 24.0966 42.4349 24.0493 42.6343 23.8144L45.6808 19.5306C45.9308 19.2008 45.8805 19.0129 45.581 18.8241C42.7348 16.7529 38.5398 15.4822 34.045 15.4822C26.7043 15.4822 22.0099 19.3892 22.0099 25.2733C22.0099 30.922 25.8556 33.9818 32.7472 34.8764L34.5451 35.1116C38.59 35.6294 39.7885 36.8065 39.7885 38.6892C39.7885 40.9492 37.7905 42.5025 34.2447 42.5025C30.6496 42.5025 27.6031 40.9014 25.3568 39.2071C25.1062 39.0186 24.8071 39.0186 24.6073 39.2544L20.8116 43.3493C20.5623 43.6322 20.6616 43.9618 20.8618 44.1501C23.5083 46.5502 28.6516 48.5276 33.9457 48.5276C42.7348 48.5276 47.2787 44.2438 47.2787 38.4536C47.2787 32.6641 43.5835 29.6511 36.5925 28.757Z" fill="white"/>
<path d="M63.5305 15.4819C57.5879 15.4819 52.8937 18.0713 51.1462 23.2492C50.3969 25.4614 50.197 27.2508 50.197 32.0047C50.197 36.7594 50.3969 38.5484 51.1462 40.7606C52.8937 45.9385 57.5879 48.5278 63.5305 48.5278C69.473 48.5278 74.1668 45.9385 75.9152 40.7606C76.6642 38.5484 76.8639 36.7594 76.8639 32.0047C76.8639 27.2508 76.6642 25.4614 75.9152 23.2492C74.1668 18.0713 69.473 15.4819 63.5305 15.4819ZM68.8741 38.8778C68.1247 41.09 66.3269 42.4082 63.5305 42.4082C60.7341 42.4082 58.9363 41.09 58.187 38.8778C57.7873 37.7481 57.6383 36.1943 57.6383 32.0047C57.6383 27.8155 57.7873 26.2622 58.187 25.1325C58.9363 22.9203 60.7341 21.6021 63.5305 21.6021C66.3269 21.6021 68.1247 22.9203 68.8741 25.1325C69.2741 26.2622 69.4236 27.8155 69.4236 32.0047C69.4236 36.1943 69.2741 37.7481 68.8741 38.8778Z" fill="white"/>
<path d="M98.9473 41.8433H88.5328C88.3682 41.8433 88.2338 41.7167 88.2338 41.5611V16.4712C88.2338 16.2106 88.0097 15.9999 87.7336 15.9999H81.3923C81.1163 15.9999 80.8926 16.2106 80.8926 16.4708V47.5397C80.8926 47.7991 81.1163 48.0097 81.3915 48.0097H96.9705C97.1833 48.0097 97.3736 47.8838 97.4451 47.695L99.4218 42.4775C99.5393 42.1688 99.2965 41.8433 98.9473 41.8433Z" fill="white"/>
<path d="M120.408 16.4707C120.307 16.1881 120.108 16.0001 119.758 16.0001H113.466C113.117 16.0001 112.916 16.1881 112.817 16.4707L101.131 47.5392C101.032 47.8218 101.131 48.0101 101.481 48.0101H108.023C108.372 48.0101 108.572 47.8685 108.672 47.5392L110.569 41.9377H122.455L124.402 47.5392C124.502 47.8685 124.702 48.0101 125.052 48.0101H131.543C131.893 48.0101 131.993 47.8218 131.893 47.5392L120.408 16.4707ZM112.617 36.0532L116.463 24.8499H116.612L120.458 36.0532H112.617Z" fill="white"/>
<path d="M155.015 34.8293C158.761 33.276 161.058 30.0277 161.058 25.9328C161.058 20.0952 156.463 16.0001 149.522 16.0001H135.99C135.69 16.0001 135.489 16.1881 135.489 16.4707V47.5392C135.489 47.8218 135.69 48.0101 135.99 48.0101H142.332C142.631 48.0101 142.83 47.8218 142.83 47.5392V36.1006C142.83 35.9122 142.931 35.8176 143.13 35.8176H147.675L153.518 47.5392C153.667 47.8685 153.817 48.0101 154.267 48.0101H161.358C161.707 48.0101 161.857 47.7275 161.707 47.4449L155.015 34.8293ZM149.123 29.9336H143.13C142.931 29.9336 142.83 29.8398 142.83 29.6515V22.2605C142.83 22.0721 142.931 21.9784 143.13 21.9784H149.123C151.92 21.9784 153.717 23.5317 153.717 25.9328C153.717 28.3806 151.92 29.9336 149.123 29.9336Z" fill="white"/>
<path d="M191.401 30.2161H179.715C179.416 30.2161 179.215 30.4045 179.215 30.6871V35.2056C179.215 35.4886 179.416 35.677 179.715 35.677H184.31C184.509 35.677 184.609 35.7708 184.609 35.9592C184.609 37.3241 184.459 38.3128 184.209 39.1132C183.51 41.2315 181.313 42.4082 178.766 42.4082C175.82 42.4082 173.972 41.0896 173.223 38.8779C172.823 37.7477 172.674 36.1943 172.674 32.0051C172.674 27.8156 172.823 26.3091 173.223 25.1794C173.972 22.9667 175.77 21.6017 178.667 21.6017C181.463 21.6017 183.161 22.7314 184.509 24.8968C184.609 25.1325 184.859 25.2267 185.208 25.1325L190.552 23.014C190.852 22.8729 190.901 22.5904 190.751 22.3079C189.153 18.4481 185.009 15.4821 178.667 15.4821C172.624 15.4821 167.93 18.0709 166.181 23.2492C165.432 25.4618 165.233 27.2509 165.233 32.0051C165.233 36.759 165.432 38.548 166.181 40.7603C167.93 45.9389 172.624 48.5279 178.667 48.5279C184.659 48.5279 189.354 45.656 191.051 40.525C191.651 38.7833 191.9 36.1475 191.9 33.3233V30.6871C191.9 30.4045 191.701 30.2161 191.401 30.2161Z" fill="white"/>
<path d="M204.333 16H197.99C197.69 16 197.491 16.188 197.491 16.4706V47.5394C197.491 47.8216 197.69 48.01 197.99 48.01H204.333C204.633 48.01 204.832 47.8216 204.832 47.5394V16.4706C204.832 16.188 204.633 16 204.333 16Z" fill="white"/>
<path d="M225.405 28.757L223.607 28.5214C219.712 28.0041 218.314 26.827 218.314 24.9911C218.314 22.9668 219.862 21.5072 222.858 21.5072C225.655 21.5072 228.152 22.3553 230.748 23.9551C230.999 24.0966 231.248 24.0493 231.447 23.8144L234.494 19.5306C234.744 19.2008 234.693 19.0129 234.394 18.8241C231.548 16.7529 227.353 15.4822 222.858 15.4822C215.517 15.4822 210.823 19.3892 210.823 25.2733C210.823 30.922 214.668 33.9818 221.56 34.8764L223.358 35.1116C227.403 35.6294 228.601 36.8065 228.601 38.6892C228.601 40.9492 226.603 42.5025 223.058 42.5025C219.463 42.5025 216.416 40.9014 214.17 39.2071C213.919 39.0186 213.62 39.0186 213.42 39.2544L209.625 43.3493C209.375 43.6322 209.474 43.9618 209.674 44.1501C212.321 46.5502 217.464 48.5276 222.759 48.5276C231.548 48.5276 236.092 44.2438 236.092 38.4536C236.092 32.6641 232.396 29.6511 225.405 28.757Z" fill="white"/>
</g>
<defs>
<clipPath id="clip0_1610_17470">
<rect width="258" height="64" fill="white"/>
</clipPath>
</defs>
</svg>