<svg viewBox="0 0 1163 375" fill="none" xmlns="http://www.w3.org/2000/svg" preserveAspectRatio="none">
<path d="M0.182373 374.967C0.182373 374.967 201.392 230.827 230.996 217.782C253.534 207.926 316.908 125.638 362.817 68.1519C368.379 61.1949 389.54 66.9018 394.631 60.4702C411.806 38.7296 425.72 20.6123 432.912 11.2095C447.569 -7.81361 532.032 0.973242 545.837 11.2095C552.939 16.4816 603.051 94.0958 634.956 130.892C645.21 142.704 732.952 137.704 760.617 143.773C787.322 149.625 914.776 273.801 935.539 281.917C1050.2 326.739 1139.83 366.796 1162.62 374.931H0.182373V374.967Z" fill="#191919"/>
<path opacity="0.4" d="M0.182373 374.967C0.182373 374.967 201.392 230.827 230.996 217.782C253.534 207.926 316.908 125.638 362.817 68.1519C368.379 61.1949 389.54 66.9018 394.631 60.4702C411.806 38.7296 425.72 20.6123 432.912 11.2095C447.569 -7.81361 532.032 0.973242 545.837 11.2095C552.939 16.4816 603.051 94.0958 634.956 130.892C645.21 142.704 732.952 137.704 760.617 143.773C787.322 149.625 914.776 273.801 935.539 281.917C1050.2 326.739 1139.83 366.796 1162.62 374.931H0.182373V374.967Z" fill="black"/>
<path opacity="0.1" d="M0.236816 374.931H633.506C598.649 355.817 524.332 314.401 517.828 305.488C509.313 293.838 498.243 209.593 495.091 198.433C491.938 187.273 432.822 120.529 430.358 108.481C427.894 96.4329 437.605 8.83614 437.877 7.02441H437.75C437.528 7.13374 437.316 7.26098 437.116 7.40487C436.864 7.5532 436.622 7.71654 436.391 7.89403L435.721 8.36509L435.123 8.85426L434.471 9.41589C434.471 9.41589 434.307 9.56082 434.235 9.65141C434.047 9.8127 433.871 9.98837 433.71 10.1768C433.601 10.3036 433.492 10.3942 433.402 10.521C433.311 10.6479 433.057 10.9015 432.912 11.1189C432.768 11.3363 432.224 11.9885 431.862 12.4777L430.72 13.9633L429.488 15.5576L428.184 17.2425C420.375 27.3338 408.599 42.6067 394.631 60.3434C394.448 60.5866 394.235 60.8057 393.997 60.9956C393.796 61.1902 393.577 61.3661 393.344 61.521C393.041 61.7206 392.727 61.9021 392.402 62.0646C392.155 62.1874 391.901 62.2963 391.641 62.3907C391.641 62.3907 389.739 104.604 390.156 108.354C390.572 112.104 407.603 138.9 408.635 144.715C409.668 150.531 407.095 172.942 408.744 177.725C409.686 180.515 426.734 209.847 431.209 217.021C432.46 218.978 418.962 217.692 418.527 217.692C416.824 217.692 400.899 191.621 397.837 189.755C394.776 187.889 392.221 152.832 390.101 150.169C387.982 147.505 367.256 118.627 364.538 115.42C361.82 112.213 362.835 68.1701 362.835 68.1701C354.211 78.9498 344.99 90.5992 335.532 102.484C333.195 105.437 330.804 108.445 328.412 111.416C327.615 112.394 326.818 113.409 326.021 114.405C323.847 117.159 321.655 119.895 319.444 122.612C316.455 126.344 313.447 130.059 310.476 133.736L306.001 139.171L301.544 144.607C300.095 146.418 298.609 148.23 297.142 150.042C291.29 157.144 285.529 163.974 280.003 170.424C278.608 172.036 277.249 173.63 275.872 175.17C265.382 187.218 255.726 197.636 247.609 205.263C246.269 206.495 245.001 207.673 243.75 208.76C242.899 209.503 242.066 210.227 241.25 210.898L239.783 212.093C238.352 213.235 236.975 214.267 235.706 215.119C235.706 215.119 286.598 246.353 294.116 255.212C301.635 264.072 319.897 320.289 325.785 326.739C331.673 333.189 370.77 359.042 369.158 361.162C367.545 363.282 295.33 350.672 287.159 338.552C278.988 326.431 261.542 280.395 253.479 274.163C247.301 269.38 212.969 248.038 197.026 238.164C131.532 280.866 3.11746 372.866 0.236816 374.931Z" fill="black"/>
<path opacity="0.1" d="M749.656 142.143C749.656 142.143 737.698 169.319 733.097 172.942C728.495 176.566 694.326 184.773 691.699 184.283C689.072 183.794 655.192 224.431 652.728 225.047C650.265 225.663 608.921 234.957 606.693 233.526C604.464 232.095 642.402 198.813 644.449 195.154C646.496 191.494 639.738 179.881 638.869 174.881C637.999 169.88 643.235 134.805 643.235 134.805C660.972 139.534 700.685 139.407 730.741 140.784H730.85L749.565 142.07L749.656 142.143Z" fill="black"/>
</svg>
