
<svg viewBox="0 0 1122 333" fill="none" xmlns="http://www.w3.org/2000/svg" preserveAspectRatio="none">
<path d="M0 332.513C0 332.513 405.201 248.513 439.594 237.484C461.39 230.51 562.434 115.669 631.395 49.6067C636.735 44.5065 663.282 49.04 666.53 47.0566C694.166 30.1214 715.461 0.0435791 732.526 0.0435791C751.118 0.0435791 893.639 189.251 908.482 205.161C923.325 221.072 1003.62 278.503 1028.49 284.345C1053.36 290.186 1121.93 332.6 1121.93 332.6L0 332.513Z" fill="#191919"/>
<path opacity="0.3" d="M0 332.513C0 332.513 405.201 248.513 439.594 237.484C461.39 230.51 562.434 115.669 631.395 49.6067C636.735 44.5065 663.282 49.04 666.53 47.0566C694.166 30.1214 715.461 0.0435791 732.526 0.0435791C751.118 0.0435791 893.639 189.251 908.482 205.161C923.325 221.072 1003.62 278.503 1028.49 284.345C1053.36 290.186 1121.93 332.6 1121.93 332.6L0 332.513Z" fill="black"/>
<path opacity="0.1" d="M528.673 332.513H1121.93C1121.93 332.513 1101.42 319.828 1078.75 307.361L1074.87 305.181L1072.91 304.135L1068.98 301.955L1067.02 300.909L1061.18 297.902C1058.61 296.572 1056.06 295.286 1053.58 294.109C1051.09 292.932 1048.67 291.777 1046.36 290.731L1042.92 289.227L1039.65 287.854L1036.55 286.655C1035.55 286.284 1034.57 285.914 1033.63 285.609C1031.76 284.999 1030.06 284.454 1028.49 284.105C1027.7 283.931 1026.9 283.713 1026 283.429C1025.11 283.146 1024.19 282.819 1023.21 282.448C1021.75 281.882 1020.16 281.228 1018.48 280.487L1015 279.027L1011.31 277.174C994.417 268.023 978.064 257.9 962.339 246.856C957.675 243.652 953.054 240.318 948.608 237.201C947.104 236.155 945.643 235.021 944.248 234.041L937.884 229.355L933.852 226.325C931.869 224.843 929.994 223.383 928.163 221.966C926.943 221.029 925.744 220.091 924.611 219.176C920.622 216.016 917.135 213.139 914.28 210.61C913.451 209.913 912.71 209.237 912.1 208.583C910.705 207.276 909.506 206.099 908.569 205.118C893.748 189.229 751.227 0 732.636 0C732.636 0 767.116 102.984 766.68 110.024C766.244 117.064 717.597 166.431 716.55 171.684C715.504 177.285 714.371 208.256 710.971 210.915C708.399 212.79 588.393 293.303 528.673 332.513ZM817.398 201.543C816.875 199.495 830.476 176.413 832.307 175.214C834.137 174.016 851.923 173.994 852.947 173.994C853.971 173.994 859.115 165.799 860.074 165.951C862.787 166.935 865.43 168.1 867.986 169.439C868.967 170.071 865.087 183.235 863.256 183.736C861.425 184.238 848.522 200.955 846.583 201.543C844.643 202.132 818.14 204.268 817.398 201.543Z" fill="black"/>
</svg>
